<svg version="1.1" xmlns="http://www.w3.org/2000/svg" xmlns:xlink="http://www.w3.org/1999/xlink" width="48" height="48"><defs><linearGradient x1="14.22989" y1="15.31361" x2="54.98335" y2="53.8996" gradientUnits="userSpaceOnUse" id="color-1"><stop offset="0" stop-color="#000000" stop-opacity="0.3"></stop><stop offset="1" stop-color="#000000" stop-opacity="0"></stop></linearGradient><filter id="dropshadow-base"><feColorMatrix type="matrix" values="0 0 0 0 0  0 0 0 0 0  0 0 0 0 0  0 0 0 .8 0"></feColorMatrix> <feOffset dx="0" dy="1"></feOffset> <feGaussianBlur stdDeviation="1"></feGaussianBlur> <feComposite in="SourceGraphic"></feComposite></filter><filter id="dropshadow-banner" x="-10%" y="-10%" width="120%" height="130%"><feColorMatrix type="matrix" values="0 0 0 0 0  0 0 0 0 0  0 0 0 0 0  0 0 0 .4 0"></feColorMatrix> <feOffset dx="0" dy="1"></feOffset> <feGaussianBlur stdDeviation="0.5"></feGaussianBlur> <feComposite in="SourceGraphic"></feComposite></filter></defs><g fill="none" fill-rule="nonzero" stroke="none" stroke-width="none" stroke-linecap="butt" stroke-linejoin="miter" stroke-miterlimit="10" stroke-dasharray="" stroke-dashoffset="0" font-family="none" font-weight="none" font-size="none" text-anchor="none" style="mix-blend-mode: normal"><path d="M2,24c0,-12.15026 9.84974,-22 22,-22c12.15026,0 22,9.84974 22,22c0,12.15026 -9.84974,22 -22,22c-12.15026,0 -22,-9.84974 -22,-22z" id="base 1 5" fill="#138a1f" stroke-width="1"></path><path d="M14.3552,26.37149c-0.07743,-0.07743 -0.12531,-0.18441 -0.12531,-0.3026v-4.54658c0,-0.23638 0.19153,-0.42791 0.42791,-0.42791h6.40285l-0.50377,-0.50377c-0.07742,-0.07742 -0.12531,-0.18437 -0.12531,-0.30252l0,-4.54659c0,-0.23638 0.19153,-0.42791 0.42791,-0.42791h11.76899c0.11819,0 0.22517,0.04788 0.3026,0.12531l12.68336,12.68336c-1.39902,7.38029 -6.48447,13.45598 -13.26884,16.23959z" fill="url(#color-1)" stroke-width="1"></path><path d="M33.52195,24.61171c-0.28533,0.44075 -0.76921,0.70389 -1.29423,0.70389h-1.61585v1.55971h1.05956c0.23638,0 0.42791,0.19153 0.42791,0.42791v3.48263c0,1.04798 -0.85263,1.90055 -1.90055,1.90055h-0.02973c-1.04798,0 -1.90055,-0.85263 -1.90055,-1.90055v-3.48263c0,-0.23638 0.19153,-0.42791 0.42791,-0.42791h1.05956v-1.55971h-1.61613c-0.50408,0 -0.97695,-0.24693 -1.26508,-0.66052c-0.28807,-0.41359 -0.35579,-0.94277 -0.18103,-1.41553l1.84635,-4.99566c0.22617,-0.61186 0.79432,-1.00719 1.44737,-1.00719c0.61482,0 1.15325,0.34889 1.40526,0.91054l2.24157,4.99561c0.21487,0.47903 0.17288,1.02813 -0.11234,1.46888zM31.24346,27.73107h-2.11919v3.05471c0,0.57608 0.46865,1.04473 1.04473,1.04473h0.02973c0.57608,0 1.04473,-0.46865 1.04473,-1.04473zM32.85344,23.49321l-2.24151,-4.99566c-0.11382,-0.25372 -0.34724,-0.40509 -0.62441,-0.40509c-0.23159,0 -0.52251,0.1177 -0.64461,0.44811l-1.84635,4.99561c-0.07891,0.21344 -0.04952,0.44303 0.0805,0.62971c0.13003,0.18674 0.3352,0.29383 0.56279,0.29383h4.08781c0.23706,0 0.44691,-0.11411 0.5758,-0.31312c0.12877,-0.19895 0.14703,-0.43715 0.04998,-0.65339zM21.2874,27.73107v3.69076h6.06053c0.23638,0 0.42791,0.19153 0.42791,0.42791c0,0.23638 -0.19153,0.42791 -0.42791,0.42791h-6.48844c-0.23638,0 -0.42791,-0.19153 -0.42791,-0.42791v-4.54658c0,-0.23638 0.19153,-0.42791 0.42791,-0.42791h6.48844c0.23638,0 0.42791,0.19153 0.42791,0.42791c0,0.23638 -0.19153,0.42791 -0.42791,0.42791zM27.77584,26.06889c0,0.23638 -0.19153,0.42791 -0.42791,0.42791h-2.66229c-0.23638,0 -0.42791,-0.19153 -0.42791,-0.42791v-4.54658c0,-0.23638 0.19153,-0.42791 0.42791,-0.42791h2.05837c0.23638,0 0.42791,0.19153 0.42791,0.42791c0,0.23638 -0.19153,0.42791 -0.42791,0.42791h-1.63046v3.69076h2.23438c0.23638,0 0.42791,0.19153 0.42791,0.42791zM20.43158,20.2881v-4.54658c0,-0.23638 0.19153,-0.42791 0.42791,-0.42791h11.76898c0.23638,0 0.42791,0.19153 0.42791,0.42791v3.06122c0,0.23638 -0.19153,0.42791 -0.42791,0.42791c-0.23638,0 -0.42791,-0.19153 -0.42791,-0.42791v-2.63331h-10.91316v3.6907h5.53249c0.23638,0 0.42791,0.19153 0.42791,0.42791c0,0.23638 -0.19153,0.42791 -0.42791,0.42791h-5.9604c-0.23632,0 -0.42791,-0.19153 -0.42791,-0.42785zM23.41834,26.4968h-8.76054c-0.23638,0 -0.42791,-0.19153 -0.42791,-0.42791v-4.54658c0,-0.23638 0.19153,-0.42791 0.42791,-0.42791h8.76054c0.23638,0 0.42791,0.19153 0.42791,0.42791v4.54658c0,0.23638 -0.19159,0.42791 -0.42791,0.42791zM22.99043,21.95022h-7.90472v3.69076h7.90472z" fill="none" stroke-width="0"></path><path d="M33.52195,24.61171c-0.28533,0.44075 -0.76921,0.70389 -1.29423,0.70389h-1.61585v1.55971h1.05956c0.23638,0 0.42791,0.19153 0.42791,0.42791v3.48263c0,1.04798 -0.85263,1.90055 -1.90055,1.90055h-0.02973c-1.04798,0 -1.90055,-0.85263 -1.90055,-1.90055v-3.48263c0,-0.23638 0.19153,-0.42791 0.42791,-0.42791h1.05956v-1.55971h-1.61613c-0.50408,0 -0.97695,-0.24693 -1.26508,-0.66052c-0.28807,-0.41359 -0.35579,-0.94277 -0.18103,-1.41553l1.84635,-4.99566c0.22617,-0.61186 0.79432,-1.00719 1.44737,-1.00719c0.61482,0 1.15325,0.34889 1.40526,0.91054l2.24157,4.99561c0.21487,0.47903 0.17288,1.02813 -0.11234,1.46888zM31.24346,27.73107h-2.11919v3.05471c0,0.57608 0.46865,1.04473 1.04473,1.04473h0.02973c0.57608,0 1.04473,-0.46865 1.04473,-1.04473zM32.85344,23.49321l-2.24151,-4.99566c-0.11382,-0.25372 -0.34724,-0.40509 -0.62441,-0.40509c-0.23159,0 -0.52251,0.1177 -0.64461,0.44811l-1.84635,4.99561c-0.07891,0.21344 -0.04952,0.44303 0.0805,0.62971c0.13003,0.18674 0.3352,0.29383 0.56279,0.29383h4.08781c0.23706,0 0.44691,-0.11411 0.5758,-0.31312c0.12877,-0.19895 0.14703,-0.43715 0.04998,-0.65339zM21.2874,27.73107v3.69076h6.06053c0.23638,0 0.42791,0.19153 0.42791,0.42791c0,0.23638 -0.19153,0.42791 -0.42791,0.42791h-6.48844c-0.23638,0 -0.42791,-0.19153 -0.42791,-0.42791v-4.54658c0,-0.23638 0.19153,-0.42791 0.42791,-0.42791h6.48844c0.23638,0 0.42791,0.19153 0.42791,0.42791c0,0.23638 -0.19153,0.42791 -0.42791,0.42791zM27.77584,26.06889c0,0.23638 -0.19153,0.42791 -0.42791,0.42791h-2.66229c-0.23638,0 -0.42791,-0.19153 -0.42791,-0.42791v-4.54658c0,-0.23638 0.19153,-0.42791 0.42791,-0.42791h2.05837c0.23638,0 0.42791,0.19153 0.42791,0.42791c0,0.23638 -0.19153,0.42791 -0.42791,0.42791h-1.63046v3.69076h2.23438c0.23638,0 0.42791,0.19153 0.42791,0.42791zM20.43158,20.2881v-4.54658c0,-0.23638 0.19153,-0.42791 0.42791,-0.42791h11.76898c0.23638,0 0.42791,0.19153 0.42791,0.42791v3.06122c0,0.23638 -0.19153,0.42791 -0.42791,0.42791c-0.23638,0 -0.42791,-0.19153 -0.42791,-0.42791v-2.63331h-10.91316v3.6907h5.53249c0.23638,0 0.42791,0.19153 0.42791,0.42791c0,0.23638 -0.19153,0.42791 -0.42791,0.42791h-5.9604c-0.23632,0 -0.42791,-0.19153 -0.42791,-0.42785zM23.41834,26.4968h-8.76054c-0.23638,0 -0.42791,-0.19153 -0.42791,-0.42791v-4.54658c0,-0.23638 0.19153,-0.42791 0.42791,-0.42791h8.76054c0.23638,0 0.42791,0.19153 0.42791,0.42791v4.54658c0,0.23638 -0.19159,0.42791 -0.42791,0.42791zM22.99043,21.95022h-7.90472v3.69076h7.90472z" fill="#fff503" stroke-width="0"></path><path d="M2,24c0,-12.15026 9.84974,-22 22,-22c12.15026,0 22,9.84974 22,22c0,12.15026 -9.84974,22 -22,22c-12.15026,0 -22,-9.84974 -22,-22z" id="base 1 1 1" fill="none" stroke-width="1"></path><g id="Capa_1 1 1" fill="#000000" stroke-width="1" font-family="Roboto, sans-serif" font-weight="400" font-size="14" text-anchor="start"><g></g><g></g><g></g><g></g><g></g><g></g><g></g><g></g><g></g><g></g><g></g><g></g><g></g><g></g><g></g><g></g></g><rect x="2" y="2" width="44" height="22" fill="none" stroke-width="1"></rect><path d="M2,24v-22h44v22z" fill="none" stroke-width="1"></path><path d="M2,24v-22h44v22z" fill="none" stroke-width="1"></path><path d="M2,24v-22h44v22z" fill="none" stroke-width="1"></path><path d="M2,24v-22h44v22z" fill="none" stroke-width="1"></path></g></svg>